<svg version="1.1" xmlns="http://www.w3.org/2000/svg" viewBox="0 0 210.3499984741212 107.92974984645836" width="631.0499954223636" height="323.7892495393751" filter="invert(93%) hue-rotate(180deg)">
  <!-- svg-source:excalidraw -->
  
  <defs>
    <style class="style-fonts">
      @font-face {
        font-family: "Virgil";
        src: url("https://excalidraw.com/Virgil.woff2");
      }
      @font-face {
        font-family: "Cascadia";
        src: url("https://excalidraw.com/Cascadia.woff2");
      }
      @font-face {
        font-family: "Assistant";
        src: url("https://excalidraw.com/Assistant-Regular.woff2");
      }
    </style>
    
  </defs>
  <g transform="translate(10 51.929749846458364) rotate(0 45.91666793823242 22.5)"><text x="0" y="0" font-family="Virgil, Segoe UI Emoji" font-size="36px" fill="#1e1e1e" text-anchor="start" style="white-space: pre;" direction="ltr" dominant-baseline="text-before-edge">truck</text></g><g transform="translate(98 47.929749846458364) rotate(345.4973630273342 19.700000762939453 22.5)"><text x="0" y="0" font-family="Virgil, Segoe UI Emoji" font-size="36px" fill="#2f9e44" text-anchor="start" style="white-space: pre;" direction="ltr" dominant-baseline="text-before-edge">ee</text></g><g transform="translate(132.7500000000001 52.929749846458364) rotate(0 33.79999923706055 22.5)"><text x="0" y="0" font-family="Virgil, Segoe UI Emoji" font-size="36px" fill="#1e1e1e" text-anchor="start" style="white-space: pre;" direction="ltr" dominant-baseline="text-before-edge">.xyz</text></g><g stroke-linecap="round"><g transform="translate(105.87500000000011 63.17974984645842) rotate(0 -3.75 -18.75)"><path d="M-0.47 -1.8 C-2.74 -15.29, -5.19 -29.12, -8.06 -35.94" stroke="#2f9e44" stroke-width="2.5" fill="none" stroke-dasharray="8 10"></path></g><g transform="translate(105.87500000000011 63.17974984645842) rotate(0 -3.75 -18.75)"><path d="M3.14 -22.5 C-0.88 -27.64, -4.91 -33.08, -8.6 -34.45" stroke="#2f9e44" stroke-width="2.5" fill="none"></path></g><g transform="translate(105.87500000000011 63.17974984645842) rotate(0 -3.75 -18.75)"><path d="M-9.33 -18.56 C-8.62 -25.07, -7.95 -31.99, -8.6 -34.45" stroke="#2f9e44" stroke-width="2.5" fill="none"></path></g></g><mask></mask><g stroke-linecap="round"><g transform="translate(120.79735724470663 62.85297672577319) rotate(0 -2.8350469927310087 -25.49851801682322)"><path d="M-2.96 1.12 C-0.89 -14.35, -2.5 -35, -6.01 -52.85" stroke="#e03131" stroke-width="2.5" fill="none" stroke-dasharray="8 10"></path></g><g transform="translate(120.79735724470663 62.85297672577319) rotate(0 -2.8350469927310087 -25.49851801682322)"><path d="M4.59 -30.41 C2.62 -36.94, -1.31 -46.05, -6.18 -53.78" stroke="#e03131" stroke-width="2.5" fill="none"></path></g><g transform="translate(120.79735724470663 62.85297672577319) rotate(0 -2.8350469927310087 -25.49851801682322)"><path d="M-12.3 -27.76 C-8.58 -35.14, -6.8 -45.14, -6.18 -53.78" stroke="#e03131" stroke-width="2.5" fill="none"></path></g></g><mask></mask><g stroke-linecap="round"><g transform="translate(130.29929905236122 58.80391329547278) rotate(0 3.03898210344164 -19.411486301673015)"><path d="M0.87 -0.27 C1.68 -13.71, 5.79 -26.44, 5.26 -37.65" stroke="#2f9e44" stroke-width="2.5" fill="none" stroke-dasharray="8 10"></path></g><g transform="translate(130.29929905236122 58.80391329547278) rotate(0 3.03898210344164 -19.411486301673015)"><path d="M11.84 -19.12 C8.87 -25.89, 9.07 -32.06, 4.45 -36.5" stroke="#2f9e44" stroke-width="2.5" fill="none"></path></g><g transform="translate(130.29929905236122 58.80391329547278) rotate(0 3.03898210344164 -19.411486301673015)"><path d="M-1.58 -19.84 C-0.14 -26.47, 4.46 -32.4, 4.45 -36.5" stroke="#2f9e44" stroke-width="2.5" fill="none"></path></g></g><mask></mask></svg>