<svg version="1.1" xmlns="http://www.w3.org/2000/svg" viewBox="0 0 57.76353163654824 71.61672927066677" width="57.76353163654824" height="71.61672927066677">
  <!-- svg-source:excalidraw -->
  
  <defs>
    <style class="style-fonts">
      @font-face {
        font-family: "Virgil";
        src: url("https://excalidraw.com/Virgil.woff2");
      }
      @font-face {
        font-family: "Cascadia";
        src: url("https://excalidraw.com/Cascadia.woff2");
      }
      @font-face {
        font-family: "Assistant";
        src: url("https://excalidraw.com/Assistant-Regular.woff2");
      }
    </style>
    
  </defs>
  <rect x="0" y="0" width="57.76353163654824" height="71.61672927066677" fill="#ffffff"></rect><g stroke-linecap="round"><g transform="translate(17.772864159196615 62.3215308338403) rotate(0 -3.75 -18.75)"><path d="M-0.19 -0.7 C-4.66 -14.66, -6.39 -29.44, -7.77 -36.93" stroke="#2f9e44" stroke-width="2.5" fill="none" stroke-dasharray="8 10"></path></g><g transform="translate(17.772864159196615 62.3215308338403) rotate(0 -3.75 -18.75)"><path d="M1.43 -20.94 C-3.52 -26.95, -6.03 -33.76, -8.03 -36.38" stroke="#2f9e44" stroke-width="2.5" fill="none"></path></g><g transform="translate(17.772864159196615 62.3215308338403) rotate(0 -3.75 -18.75)"><path d="M-11.47 -18.81 C-11.52 -25.65, -9.09 -33.27, -8.03 -36.38" stroke="#2f9e44" stroke-width="2.5" fill="none"></path></g></g><mask></mask><g stroke-linecap="round"><g transform="translate(32.69522140390302 61.994757713155124) rotate(0 -2.8350469927310087 -25.49851801682322)"><path d="M-2.95 -0.7 C-2.38 -17.77, -4.03 -31.08, -6.01 -51.99" stroke="#e03131" stroke-width="2.5" fill="none" stroke-dasharray="8 10"></path></g><g transform="translate(32.69522140390302 61.994757713155124) rotate(0 -2.8350469927310087 -25.49851801682322)"><path d="M3.27 -29.78 C1.03 -37.41, -2.3 -43.14, -6.18 -52.49" stroke="#e03131" stroke-width="2.5" fill="none"></path></g><g transform="translate(32.69522140390302 61.994757713155124) rotate(0 -2.8350469927310087 -25.49851801682322)"><path d="M-13.75 -28.14 C-10.62 -36.23, -8.57 -42.47, -6.18 -52.49" stroke="#e03131" stroke-width="2.5" fill="none"></path></g></g><mask></mask><g stroke-linecap="round"><g transform="translate(42.197163211557495 57.94569428285472) rotate(0 3.03898210344164 -19.411486301673015)"><path d="M-0.35 -0.82 C1.62 -9.69, 3.33 -21.05, 5.57 -38.06" stroke="#2f9e44" stroke-width="2.5" fill="none" stroke-dasharray="8 10"></path></g><g transform="translate(42.197163211557495 57.94569428285472) rotate(0 3.03898210344164 -19.411486301673015)"><path d="M9.39 -19.67 C8.5 -23.39, 7.5 -29.53, 5.06 -37.32" stroke="#2f9e44" stroke-width="2.5" fill="none"></path></g><g transform="translate(42.197163211557495 57.94569428285472) rotate(0 3.03898210344164 -19.411486301673015)"><path d="M-3.92 -21.48 C-1.3 -24.7, 1.22 -30.36, 5.06 -37.32" stroke="#2f9e44" stroke-width="2.5" fill="none"></path></g></g><mask></mask></svg>